{"title":"Snitch 2013 HDCAM - DiVX MP3 - CLEANED AUDIO - C00KIEBOY","uid":8211848,"size":1994578005,"categoryP":"video","categoryS":"movies","magnet":"?xt=urn:btih:d4c5873f275c93fa9ea20cc2a5a2725622bb982f&amp;dn=Snitch+2013+HDCAM+-+DiVX+MP3+-+CLEANED+AUDIO+-+C00KIEBOY&amp;tr=udp%3A%2F%2Ftracker.openbittorrent.com%3A80&amp;tr=udp%3A%2F%2Fopen.demonii.com%3A1337&amp;tr=udp%3A%2F%2Ftracker.coppersurfer.tk%3A6969&amp;tr=udp%3A%2F%2Fexodus.desync.com%3A6969","seeders":1,"leechers":0,"uploader":"xxxlavalxxx","files":3,"time":1362256604,"description":" &lt;a href=&quot;http://bayimg.com/nAjNAAaep&quot; rel=&quot;nofollow&quot; target=&quot;_NEW&quot;&gt;http://bayimg.com/nAjNAAaep&lt;/a&gt;\n\n\n  &lt;a href=&quot;\nhttp://www.imdb.com/title/tt0882977/&quot; rel=&quot;nofollow&quot; target=&quot;_NEW&quot;&gt;\nhttp://www.imdb.com/title/tt0882977/&lt;/a&gt;\n\n\n\nPlot: A father goes undercover for the DEA in order to free his son who was imprisoned after being set up in drug deal. \n\n\n\nDirector:\n Ric Roman Waugh\n\nWriters:\n Justin Haythe, Ric Roman Waugh\n\nStars:\n Dwayne Johnson, Susan Sarandon, Jon Bernthal\n\nGenres:\n Action | Drama | Thriller \n\nCountry:\nUSA \n\n\n\nALL CREDITS GO TO ORIGINAL SOURCE/S:\n\nVIDEO - A FRIEND\nAUDIO - A FRIEND\n\n\nGeneral\nFormat                                   : AVI\nFormat/Info                              : Audio Video Interleave\nFile size                                : 1.82 GiB\nDuration                                 : 1h 45mn\nOverall bit rate                         : 2 464 Kbps\nWriting library                          : VirtualDub build 32842/release\n\nVideo\nID                                       : 0\nFormat                                   : MPEG-4 Visual\nFormat settings, BVOP                    : Yes\nFormat settings, QPel                    : No\nFormat settings, GMC                     : No warppoints\nFormat settings, Matrix                  : Default (H.263)\nCodec ID                                 : DX50\nCodec ID/Hint                            : DivX 5\nDuration                                 : 1h 45mn\nBit rate                                 : 2 197 Kbps\nWidth                                    : 820 pixels\nHeight                                   : 360 pixels\nDisplay aspect ratio                     : 2.25:1\nFrame rate                               : 29.970 fps\nColor space                              : YUV\nChroma subsampling                       : 4:2:0\nBit depth                                : 8 bits\nScan type                                : Progressive\nCompression mode                         : Lossy\nBits/(Pixel*Frame)                       : 0.248\nStream size                              : 1.62 GiB (89%)\nWriting library                          : DivX 6.8.5 (UTC 2009-08-20)\n\nAudio\nID                                       : 1\nFormat                                   : MPEG Audio\nFormat version                           : Version 1\nFormat profile                           : Layer 3\nCodec ID                                 : 55\nCodec ID/Hint                            : MP3\nDuration                                 : 1h 45mn\nBit rate mode                            : Constant\nBit rate                                 : 256 Kbps\nChannel(s)                               : 2 channels\nSampling rate                            : 44.1 KHz\nCompression mode                         : Lossy\nStream size                              : 194 MiB (10%)\nAlignment                                : Split accross interleaves\nInterleave, duration                     : 33 ms (1.00 video frame)\nInterleave, preload duration             : 500 ms\n\n\n\nIMDb:   &lt;a href=&quot; http://www.imdb.com/title/tt0882977/&quot; rel=&quot;nofollow&quot; target=&quot;_NEW&quot;&gt; http://www.imdb.com/title/tt0882977/&lt;/a&gt;\n\n\n\nWORK DONE:\n\nVIDEO: CROPPED, RESIZED, FIXED COLRS, DENOISED, REMOVED BAD PIXELS ECT\n\nAUDIO: RUN THROUGH SOUND FORGE\n\nSample Included\n\n\n\n &lt;a href=&quot;\nhttp://bayimg.com/IAkhgaAeB&quot; rel=&quot;nofollow&quot; target=&quot;_NEW&quot;&gt;\nhttp://bayimg.com/IAkhgaAeB&lt;/a&gt; &lt;a href=&quot;\nhttp://bayimg.com/IAKHhAAEb&quot; rel=&quot;nofollow&quot; target=&quot;_NEW&quot;&gt;\nhttp://bayimg.com/IAKHhAAEb&lt;/a&gt; &lt;a href=&quot;\nhttp://bayimg.com/IAKhiaaeb&quot; rel=&quot;nofollow&quot; target=&quot;_NEW&quot;&gt;\nhttp://bayimg.com/IAKhiaaeb&lt;/a&gt;","torrent":{"xt":"urn:btih:d4c5873f275c93fa9ea20cc2a5a2725622bb982f","amp;dn":"Snitch+2013+HDCAM+-+DiVX+MP3+-+CLEANED+AUDIO+-+C00KIEBOY","amp;tr":["udp%3A%2F%2Ftracker.openbittorrent.com%3A80","udp%3A%2F%2Fopen.demonii.com%3A1337","udp%3A%2F%2Ftracker.coppersurfer.tk%3A6969","udp%3A%2F%2Fexodus.desync.com%3A6969"],"infoHash":"d4c5873f275c93fa9ea20cc2a5a2725622bb982f","infoHashBuffer":{"type":"Buffer","data":[212,197,135,63,39,92,147,250,158,162,12,194,165,162,114,86,34,187,152,47]},"announce":[],"urlList":[]}}